name C:\Users\u0101727\Documents\MyRepositories\upper-imu-dc\Results\main_tracking\Case_32\ABD01_linearAccelerations_bodyFrame.mot
datacolumns 4
datarows 58
range 2.81000000 3.38000000
endheader 
time	radius_imu_x	radius_imu_y	radius_imu_z	
          2.81000000	         -5.28623423	          9.60316288	          4.10920667	
          2.82000000	         -3.62170855	          9.46774688	          3.34384701	
          2.83000000	         -2.49481811	          9.45465120	          2.79525694	
          2.84000000	         -1.73392638	          9.47057098	          2.41212366	
          2.85000000	         -1.26113903	          9.49721912	          2.15702257	
          2.86000000	         -1.01573374	          9.52388159	          1.99749593	
          2.87000000	         -0.94982514	          9.54411190	          1.90504812	
          2.88000000	         -1.02134654	          9.55468089	          1.85495965	
          2.89000000	         -1.18982484	          9.55483135	          1.82709693	
          2.90000000	         -1.41318232	          9.54584821	          1.80678117	
          2.91000000	         -1.64732619	          9.53071462	          1.78512639	
          2.92000000	         -1.85075776	          9.51293333	          1.75846088	
          2.93000000	         -1.99468960	          9.49440935	          1.72686015	
          2.94000000	         -2.07300222	          9.47397100	          1.69253899	
          2.95000000	         -2.10160469	          9.44834461	          1.65926336	
          2.96000000	         -2.10454153	          9.41548780	          1.63303315	
          2.97000000	         -2.09927327	          9.37757099	          1.62256538	
          2.98000000	         -2.09486049	          9.34080044	          1.63784593	
          2.99000000	         -2.09954097	          9.31258214	          1.68727224	
          3.00000000	         -2.12396553	          9.29886270	          1.77549540	
          3.01000000	         -2.17711733	          9.30292808	          1.90275742	
          3.02000000	         -2.26220848	          9.32501611	          2.06510587	
          3.03000000	         -2.37644090	          9.36239457	          2.25507836	
          3.04000000	         -2.51315169	          9.40998048	          2.46262480	
          3.05000000	         -2.66395506	          9.46161529	          2.67609508	
          3.06000000	         -2.81952212	          9.51187125	          2.88348571	
          3.07000000	         -2.96938416	          9.55759153	          3.07391335	
          3.08000000	         -3.10250532	          9.59802180	          3.23873089	
          3.09000000	         -3.21000629	          9.63337699	          3.37178345	
          3.10000000	         -3.28909827	          9.66302787	          3.46902252	
          3.11000000	         -3.34504188	          9.68476144	          3.52816254	
          3.12000000	         -3.38911504	          9.69556257	          3.54868788	
          3.13000000	         -3.43380753	          9.69317878	          3.53197758	
          3.14000000	         -3.48789957	          9.67741319	          3.48128273	
          3.15000000	         -3.55332336	          9.65056106	          3.40153204	
          3.16000000	         -3.62433430	          9.61706349	          3.29900247	
          3.17000000	         -3.68872649	          9.58267536	          3.18080407	
          3.18000000	         -3.73062637	          9.55332522	          3.05428133	
          3.19000000	         -3.73427556	          9.53381983	          2.92658185	
          3.20000000	         -3.68778368	          9.52677499	          2.80439579	
          3.21000000	         -3.58558592	          9.53225185	          2.69365455	
          3.22000000	         -3.42918441	          9.54804219	          2.59921502	
          3.23000000	         -3.22682962	          9.57011023	          2.52491426	
          3.24000000	         -2.99252998	          9.59311820	          2.47425549	
          3.25000000	         -2.74373747	          9.61158828	          2.45141646	
          3.26000000	         -2.49743790	          9.62187198	          2.46185402	
          3.27000000	         -2.26630943	          9.62379661	          2.51199985	
          3.28000000	         -2.05740361	          9.62053240	          2.60807408	
          3.29000000	         -1.87369059	          9.61671890	          2.75441576	
          3.30000000	         -1.71614050	          9.61644315	          2.95198957	
          3.31000000	         -1.58418085	          9.62246773	          3.19776687	
          3.32000000	         -1.47478700	          9.63646289	          3.48506384	
          3.33000000	         -1.38182829	          9.65917079	          3.80450231	
          3.34000000	         -1.29652345	          9.68947021	          4.14503964	
          3.35000000	         -1.20854992	          9.72323947	          4.49504058	
          3.36000000	         -1.10679243	          9.75330283	          4.84337427	
          3.37000000	         -0.97932786	          9.77150171	          5.18067902	
          3.38000000	         -0.81343691	          9.77231177	          5.50040437	
